<?xml version="1.0" standalone="no"?>
<!DOCTYPE svg PUBLIC "-//W3C//DTD SVG 20010904//EN"
 "http://www.w3.org/TR/2001/REC-SVG-20010904/DTD/svg10.dtd">
<svg version="1.0" xmlns="http://www.w3.org/2000/svg"
 width="461.000000pt" height="150.000000pt" viewBox="0 0 461.000000 150.000000"
 preserveAspectRatio="xMidYMid meet">

<g transform="translate(0.000000,150.000000) scale(0.100000,-0.100000)"
fill="#000000" stroke="none">
<path d="M0 750 l0 -750 2305 0 2305 0 0 750 0 750 -2305 0 -2305 0 0 -750z
m1430 405 c7 -9 10 -26 5 -42 -19 -77 -143 -317 -258 -498 -80 -126 -75 -120
-83 -112 -3 3 26 59 66 124 93 154 250 467 250 498 0 32 -12 31 -79 -6 -110
-62 -247 -187 -385 -351 -47 -57 -76 -73 -76 -43 0 8 11 48 24 90 13 41 22 75
21 75 -5 0 -124 -164 -184 -252 -47 -71 -71 -94 -71 -68 0 6 31 65 70 133 124
217 164 344 123 389 -37 41 -158 15 -291 -64 -77 -45 -168 -136 -179 -179 -9
-32 -31 -41 -25 -9 27 125 326 304 471 282 37 -5 71 -44 71 -82 0 -27 -22 -98
-55 -175 -18 -44 -17 -43 39 28 64 80 85 54 46 -58 -11 -32 -18 -60 -16 -62 2
-2 49 47 104 109 105 118 202 201 299 255 64 36 94 41 113 18z m1947 -19 c28
-33 30 -85 5 -116 -18 -23 -18 -22 -14 37 4 54 2 62 -19 77 -13 9 -43 16 -69
16 -44 0 -144 -24 -165 -39 -5 -4 -31 -15 -57 -25 -113 -42 -268 -167 -323
-260 -41 -70 -42 -147 -2 -182 36 -31 95 -32 155 -3 50 25 161 148 198 222 25
48 44 61 44 30 0 -22 -21 -90 -48 -158 -10 -27 -17 -56 -15 -62 3 -7 0 -13 -6
-13 -6 0 -22 -24 -37 -52 -57 -115 -130 -188 -187 -188 -85 0 -45 118 66 194
69 48 74 57 10 19 -65 -38 -159 -40 -197 -4 -41 38 -50 81 -32 143 31 105 148
218 326 313 107 58 206 86 284 82 50 -3 63 -8 83 -31z m253 -235 c-10 -19 -8
-21 22 -23 l33 -1 -33 -4 c-30 -4 -37 -11 -58 -60 -49 -111 -43 -134 26 -92
l35 21 -20 -22 c-24 -27 -59 -42 -80 -34 -21 9 -18 50 9 114 25 57 25 73 1 63
-8 -3 -15 0 -15 6 0 6 11 11 25 11 19 0 29 9 41 38 12 26 18 32 21 20 2 -9 -1
-26 -7 -37z m-1430 24 c0 -9 -9 -34 -20 -56 -40 -78 -41 -85 -11 -84 22 0 26
-4 24 -28 -2 -22 2 -27 12 -23 8 3 22 9 30 12 29 12 15 -16 -16 -31 -40 -21
-63 -13 -57 20 7 34 -2 31 -42 -10 -19 -19 -37 -35 -41 -35 -8 0 21 73 74 193
25 54 47 74 47 42z m-123 -7 c-3 -7 -22 -49 -41 -93 -20 -44 -36 -86 -36 -92
0 -15 16 -17 25 -3 3 6 11 10 17 10 6 0 3 -9 -7 -20 -23 -25 -61 -23 -58 3 1
16 -3 15 -26 -7 -36 -34 -71 -35 -71 -2 0 29 42 66 75 66 15 0 28 13 45 43 44
81 62 107 72 107 6 0 8 -6 5 -12z m1723 2 c0 -6 -16 -43 -36 -82 -29 -57 -32
-69 -17 -63 38 15 48 11 46 -19 -2 -27 0 -28 30 -22 l32 6 -25 -15 c-14 -8
-33 -14 -44 -15 -15 0 -17 6 -14 30 6 40 -4 38 -46 -12 -20 -23 -39 -39 -42
-35 -7 7 98 237 109 237 4 0 7 -5 7 -10z m-2350 -150 c0 -5 -8 -10 -18 -10
-19 0 -59 -36 -50 -45 3 -3 16 4 31 15 32 25 37 25 37 0 0 -25 9 -25 26 -3 14
20 27 14 19 -10 -7 -18 -50 -28 -63 -15 -6 6 -18 5 -32 -2 -24 -13 -50 -7 -50
11 0 18 60 69 81 69 10 0 19 -4 19 -10z m176 -3 c3 -3 3 -11 -1 -17 -6 -9 -10
-9 -16 1 -7 11 -17 5 -45 -24 -43 -47 -54 -42 -24 11 19 33 27 39 51 37 16 -1
32 -5 35 -8z m90 -24 l-6 -38 34 40 c25 29 38 37 46 29 8 -8 8 -19 0 -38 -10
-27 -9 -27 12 -12 38 27 57 19 24 -10 -23 -21 -36 -24 -62 -20 -18 4 -35 2
-39 -4 -9 -14 -45 -12 -51 3 -6 17 23 87 37 87 7 0 9 -13 5 -37z m600 21 c-3
-9 -9 -28 -12 -42 -6 -26 -5 -26 33 11 47 45 57 46 48 6 -8 -33 0 -34 38 -1
20 18 35 9 18 -12 -20 -24 -69 -40 -84 -27 -10 8 -19 7 -33 -4 -25 -19 -54
-19 -54 1 0 23 31 84 42 84 6 0 7 -7 4 -16z m1044 -34 c-20 -37 -2 -35 33 4
40 44 61 48 46 10 -13 -35 -5 -40 27 -20 36 25 42 13 6 -13 -35 -25 -51 -26
-58 -6 -5 12 -11 11 -34 -7 -27 -19 -50 -18 -50 3 0 5 7 26 17 47 11 26 17 32
20 20 2 -9 -1 -27 -7 -38z m610 40 c0 -5 -8 -10 -17 -10 -18 0 -53 -28 -53
-42 0 -5 12 0 26 11 28 22 47 20 37 -4 -7 -20 7 -19 36 2 18 12 23 13 19 2 -7
-22 -50 -40 -64 -28 -9 7 -20 7 -34 -1 -24 -13 -50 -7 -50 10 0 20 57 70 79
70 12 0 21 -4 21 -10z m146 -18 c19 9 27 9 33 0 5 -9 12 -8 27 3 30 23 47 19
40 -10 -6 -24 7 -35 19 -15 3 6 11 10 17 10 6 0 3 -9 -7 -20 -10 -11 -29 -20
-42 -20 -20 0 -23 4 -18 20 3 11 2 20 -3 20 -5 0 -17 -9 -27 -20 -21 -24 -50
-27 -41 -5 7 20 0 19 -34 -7 -16 -12 -32 -20 -34 -17 -3 2 5 25 16 49 18 38
22 41 25 23 4 -20 7 -21 29 -11z m-839 2 c7 -18 -34 -64 -58 -64 -27 0 -42 25
-30 48 18 33 77 44 88 16z"/>
<path d="M3000 695 c-35 -36 -31 -47 7 -20 16 11 39 55 29 55 -1 0 -17 -16
-36 -35z"/>
<path d="M2961 629 c-66 -26 -141 -112 -141 -162 0 -35 16 -42 48 -21 39 25
58 51 97 127 36 69 36 72 -4 56z"/>
<path d="M1910 741 c-16 -30 -13 -46 6 -31 26 22 37 50 20 50 -9 0 -20 -9 -26
-19z"/>
<path d="M3227 749 c-21 -12 -23 -39 -2 -39 16 0 39 36 27 44 -4 2 -15 0 -25
-5z"/>
</g>
</svg>
